<?xml version="1.0" encoding="UTF-8"?>
<svg id="Lager_1" data-name="Lager 1" xmlns="http://www.w3.org/2000/svg" viewBox="0 0 484.82 86.48">
  <defs>
    <style>
      .cls-1 {
        stroke: #eeb71e;
      }

      .cls-1, .cls-2, .cls-3 {
        fill: none;
        stroke-miterlimit: 10;
        stroke-width: 4px;
      }

      .cls-2 {
        stroke: #85b0a4;
      }

      .cls-3 {
        stroke: #e0cdae;
      }
    </style>
  </defs>
  <polyline class="cls-1" points="1.48 1.34 75.84 83.39 141.23 1.34"/>
  <polyline class="cls-1" points="120.23 5.59 75.14 62.17 27.31 9.97"/>
  <line class="cls-1" x1="77.45" y1="46.36" x2="47.57" y2="12.88"/>
  <line class="cls-1" x1="75.41" y1="44.58" x2="100.23" y2="13.44"/>
  <polyline class="cls-2" points="343.51 1.34 417.87 83.39 483.25 1.34"/>
  <polyline class="cls-2" points="462.26 5.59 417.17 62.17 369.34 9.97"/>
  <line class="cls-2" x1="419.48" y1="46.36" x2="389.6" y2="12.88"/>
  <line class="cls-2" x1="417.44" y1="44.58" x2="442.26" y2="13.44"/>
  <polyline class="cls-3" points="170.08 1.34 244.44 83.39 309.82 1.34"/>
  <polyline class="cls-3" points="288.83 5.59 243.74 62.17 195.91 9.97"/>
  <line class="cls-3" x1="246.05" y1="46.36" x2="216.17" y2="12.88"/>
  <line class="cls-3" x1="244.01" y1="44.58" x2="268.83" y2="13.44"/>
</svg>