<?xml version="1.0" encoding="UTF-8"?>
<svg id="Lager_1" data-name="Lager 1" xmlns="http://www.w3.org/2000/svg" viewBox="0 0 318 49.15">
  <defs>
    <style>
      .cls-1 {
        fill: #fff;
        stroke-width: 0px;
      }
    </style>
  </defs>
  <polygon class="cls-1" points="25.84 0 33.82 16.18 51.68 18.77 38.76 31.37 41.81 49.15 25.84 40.75 9.87 49.15 12.92 31.37 0 18.77 17.85 16.18 25.84 0"/>
  <polygon class="cls-1" points="92.42 0 100.41 16.18 118.26 18.77 105.34 31.37 108.39 49.15 92.42 40.75 76.45 49.15 79.5 31.37 66.58 18.77 84.44 16.18 92.42 0"/>
  <polygon class="cls-1" points="159 0 166.99 16.18 184.84 18.77 171.92 31.37 174.97 49.15 159 40.75 143.03 49.15 146.08 31.37 133.16 18.77 151.02 16.18 159 0"/>
  <polygon class="cls-1" points="225.58 0 233.57 16.18 251.42 18.77 238.5 31.37 241.55 49.15 225.58 40.75 209.61 49.15 212.66 31.37 199.74 18.77 217.6 16.18 225.58 0"/>
  <polygon class="cls-1" points="292.16 0 300.15 16.18 318 18.77 305.08 31.37 308.13 49.15 292.16 40.75 276.19 49.15 279.24 31.37 266.32 18.77 284.18 16.18 292.16 0"/>
</svg>