<?xml version="1.0" encoding="UTF-8"?>
<svg id="Lager_1" data-name="Lager 1" xmlns="http://www.w3.org/2000/svg" viewBox="0 0 248.06 49.67">
  <defs>
    <style>
      .cls-1 {
        fill: #fff;
        stroke-width: 0px;
      }
    </style>
  </defs>
  <polygon class="cls-1" points="25.84 .52 33.82 16.7 51.68 19.3 38.76 31.89 41.81 49.67 25.84 41.28 9.87 49.67 12.92 31.89 0 19.3 17.85 16.7 25.84 .52"/>
  <polygon class="cls-1" points="92.35 .52 100.33 16.7 118.19 19.3 105.27 31.89 108.32 49.67 92.35 41.28 76.38 49.67 79.43 31.89 66.51 19.3 84.36 16.7 92.35 .52"/>
  <polygon class="cls-1" points="158.93 .52 166.91 16.7 184.77 19.3 171.85 31.89 174.9 49.67 158.93 41.28 142.96 49.67 146.01 31.89 133.09 19.3 150.94 16.7 158.93 .52"/>
  <polygon class="cls-1" points="222.22 0 230.2 16.18 248.06 18.77 235.14 31.37 238.19 49.15 222.22 40.75 206.25 49.15 209.3 31.37 196.38 18.77 214.23 16.18 222.22 0"/>
</svg>